0
SECTION
2
HEADER
9
$ACADVER
1
AC1009
0
ENDSEC
0
SECTION
2
TABLES
0
TABLE
2
LAYER
70
9
0
LAYER
2
0
70
0
62
7
6
CONTINUOUS
0
LAYER
2
PLAN
70
0
62
1
6
CONTINUOUS
0
LAYER
2
NORTH
70
0
62
2
6
CONTINUOUS
0
LAYER
2
SOUTH
70
0
62
3
6
CONTINUOUS
0
LAYER
2
EAST
70
0
62
4
6
CONTINUOUS
0
LAYER
2
WEST
70
0
62
5
6
CONTINUOUS
0
LAYER
2
TITLE
70
0
62
5
6
CONTINUOUS
0
LAYER
2
SCHEDULE
70
0
62
7
6
CONTINUOUS
0
LAYER
2
CUT_SEQUENCE
70
0
62
1
6
CONTINUOUS
0
LAYER
2
FRACTURES
70
0
62
30
6
CONTINUOUS
0
ENDTAB
0
ENDSEC
0
SECTION
2
ENTITIES
0
POLYLINE
8
PLAN
66
1
70
1
0
VERTEX
8
PLAN
10
0
20
0
30
0
0
VERTEX
8
PLAN
10
7
20
0
30
0
0
VERTEX
8
PLAN
10
7
20
4
30
0
0
VERTEX
8
PLAN
10
0
20
4
30
0
0
SEQEND
8
PLAN
0
TEXT
8
PLAN
10
3.5
20
2
30
0
40
0.413401
1
PLAN
0
POLYLINE
8
NORTH
66
1
70
1
0
VERTEX
8
NORTH
10
0
20
4.3
30
0
0
VERTEX
8
NORTH
10
7
20
4.3
30
0
0
VERTEX
8
NORTH
10
7
20
8.7
30
0
0
VERTEX
8
NORTH
10
0
20
8.7
30
0
0
SEQEND
8
NORTH
0
TEXT
8
NORTH
10
3.5
20
6.5
30
0
40
0.413401
1
NORTH
0
POLYLINE
8
SOUTH
66
1
70
1
0
VERTEX
8
SOUTH
10
0
20
-0.3
30
0
0
VERTEX
8
SOUTH
10
7
20
-0.3
30
0
0
VERTEX
8
SOUTH
10
7
20
-4.7
30
0
0
VERTEX
8
SOUTH
10
0
20
-4.7
30
0
0
SEQEND
8
SOUTH
0
TEXT
8
SOUTH
10
3.5
20
-2.5
30
0
40
0.413401
1
SOUTH
0
POLYLINE
8
EAST
66
1
70
1
0
VERTEX
8
EAST
10
7.3
20
0
30
0
0
VERTEX
8
EAST
10
7.3
20
4
30
0
0
VERTEX
8
EAST
10
11.7
20
4
30
0
0
VERTEX
8
EAST
10
11.7
20
0
30
0
0
SEQEND
8
EAST
0
TEXT
8
EAST
10
9.5
20
2
30
0
40
0.413401
1
EAST
0
POLYLINE
8
WEST
66
1
70
1
0
VERTEX
8
WEST
10
-0.3
20
0
30
0
0
VERTEX
8
WEST
10
-0.3
20
4
30
0
0
VERTEX
8
WEST
10
-4.7
20
4
30
0
0
VERTEX
8
WEST
10
-4.7
20
0
30
0
0
SEQEND
8
WEST
0
TEXT
8
WEST
10
-2.5
20
2
30
0
40
0.413401
1
WEST
0
POLYLINE
8
FRACTURES
66
1
70
0
0
VERTEX
8
FRACTURES
10
3.299992
20
-0.315625
30
0
0
VERTEX
8
FRACTURES
10
3.437491
20
-0.315625
30
0
0
VERTEX
8
FRACTURES
10
3.574991
20
-0.315625
30
0
0
VERTEX
8
FRACTURES
10
3.84999
20
-0.315625
30
0
0
VERTEX
8
FRACTURES
10
4.12499
20
-0.315625
30
0
0
SEQEND
8
FRACTURES
0
POLYLINE
8
FRACTURES
66
1
70
0
0
VERTEX
8
FRACTURES
10
0
20
-1.576001
30
0
0
VERTEX
8
FRACTURES
10
0.274999
20
-1.544854
30
0
0
VERTEX
8
FRACTURES
10
0.549999
20
-1.511123
30
0
0
VERTEX
8
FRACTURES
10
0.824998
20
-1.474956
30
0
0
VERTEX
8
FRACTURES
10
1.099997
20
-1.436648
30
0
0
VERTEX
8
FRACTURES
10
1.374997
20
-1.396641
30
0
0
VERTEX
8
FRACTURES
10
1.649996
20
-1.355507
30
0
0
VERTEX
8
FRACTURES
10
1.924995
20
-1.313932
30
0
0
VERTEX
8
FRACTURES
10
2.199994
20
-1.272678
30
0
0
VERTEX
8
FRACTURES
10
2.474994
20
-1.232553
30
0
0
VERTEX
8
FRACTURES
10
2.749993
20
-1.194359
30
0
0
VERTEX
8
FRACTURES
10
3.024992
20
-1.158852
30
0
0
VERTEX
8
FRACTURES
10
3.299992
20
-1.126694
30
0
0
VERTEX
8
FRACTURES
10
3.574991
20
-1.098413
30
0
0
VERTEX
8
FRACTURES
10
3.84999
20
-1.074367
30
0
0
VERTEX
8
FRACTURES
10
4.12499
20
-1.054725
30
0
0
VERTEX
8
FRACTURES
10
4.399989
20
-1.039449
30
0
0
VERTEX
8
FRACTURES
10
4.674988
20
-1.028301
30
0
0
VERTEX
8
FRACTURES
10
4.949988
20
-1.020849
30
0
0
VERTEX
8
FRACTURES
10
5.224987
20
-1.016496
30
0
0
VERTEX
8
FRACTURES
10
5.499986
20
-1.014515
30
0
0
VERTEX
8
FRACTURES
10
5.572963
20
-1.014402
30
0
0
VERTEX
8
FRACTURES
10
5.774985
20
-1.014087
30
0
0
VERTEX
8
FRACTURES
10
6.049985
20
-1.014349
30
0
0
VERTEX
8
FRACTURES
10
6.324984
20
-1.014439
30
0
0
SEQEND
8
FRACTURES
0
POLYLINE
8
FRACTURES
66
1
70
0
0
VERTEX
8
FRACTURES
10
2.430202
20
-3.43774
30
0
0
VERTEX
8
FRACTURES
10
2.624993
20
-3.444233
30
0
0
VERTEX
8
FRACTURES
10
2.819785
20
-3.45237
30
0
0
VERTEX
8
FRACTURES
10
3.014576
20
-3.462378
30
0
0
SEQEND
8
FRACTURES
0
POLYLINE
8
FRACTURES
66
1
70
0
0
VERTEX
8
FRACTURES
10
-0.315625
20
1.510413
30
0
0
VERTEX
8
FRACTURES
10
-0.315625
20
1.359372
30
0
0
SEQEND
8
FRACTURES
0
POLYLINE
8
FRACTURES
66
1
70
0
0
VERTEX
8
FRACTURES
10
-1.54105
20
2.567702
30
0
0
VERTEX
8
FRACTURES
10
-1.545068
20
2.416661
30
0
0
VERTEX
8
FRACTURES
10
-1.548937
20
2.265619
30
0
0
VERTEX
8
FRACTURES
10
-1.552628
20
2.114578
30
0
0
VERTEX
8
FRACTURES
10
-1.556114
20
1.963537
30
0
0
VERTEX
8
FRACTURES
10
-1.559369
20
1.812495
30
0
0
VERTEX
8
FRACTURES
10
-1.562373
20
1.661454
30
0
0
VERTEX
8
FRACTURES
10
-1.565107
20
1.510413
30
0
0
VERTEX
8
FRACTURES
10
-1.567555
20
1.359372
30
0
0
VERTEX
8
FRACTURES
10
-1.569708
20
1.20833
30
0
0
VERTEX
8
FRACTURES
10
-1.571556
20
1.057289
30
0
0
VERTEX
8
FRACTURES
10
-1.573096
20
0.906248
30
0
0
VERTEX
8
FRACTURES
10
-1.574326
20
0.755206
30
0
0
VERTEX
8
FRACTURES
10
-1.575248
20
0.604165
30
0
0
VERTEX
8
FRACTURES
10
-1.575868
20
0.453124
30
0
0
VERTEX
8
FRACTURES
10
-1.576193
20
0.302083
30
0
0
VERTEX
8
FRACTURES
10
-1.576213
20
0.226358
30
0
0
VERTEX
8
FRACTURES
10
-1.576233
20
0.151041
30
0
0
VERTEX
8
FRACTURES
10
-1.576001
20
0
30
0
0
SEQEND
8
FRACTURES
0
LINE
8
CUT_SEQUENCE
10
0
20
0
30
0
11
0
21
3.91331
31
0
0
TEXT
8
CUT_SEQUENCE
10
0
20
1.956655
30
0
40
0.413401
1
Q1
0
LINE
8
CUT_SEQUENCE
10
2.31
20
0
30
0
11
2.31
21
0.73
31
0
0
TEXT
8
CUT_SEQUENCE
10
2.31
20
0.365
30
0
40
0.413401
1
Q2
0
LINE
8
CUT_SEQUENCE
10
2.97
20
2.19
30
0
11
2.97
21
3.65
31
0
0
TEXT
8
CUT_SEQUENCE
10
2.97
20
2.92
30
0
40
0.413401
1
Q3
0
LINE
8
CUT_SEQUENCE
10
3.72
20
0
30
0
11
3.72
21
3.91331
31
0
0
TEXT
8
CUT_SEQUENCE
10
3.72
20
1.956655
30
0
40
0.413401
1
Q4
0
LINE
8
CUT_SEQUENCE
10
4.5
20
0.73
30
0
11
4.5
21
3.91331
31
0
0
TEXT
8
CUT_SEQUENCE
10
4.5
20
2.321655
30
0
40
0.413401
1
Q5
0
LINE
8
CUT_SEQUENCE
10
5.1
20
0
30
0
11
5.1
21
0.73
31
0
0
TEXT
8
CUT_SEQUENCE
10
5.1
20
0.365
30
0
40
0.413401
1
Q6
0
LINE
8
CUT_SEQUENCE
10
5.609
20
3.65
30
0
11
5.609
21
3.91331
31
0
0
TEXT
8
CUT_SEQUENCE
10
5.609
20
3.781655
30
0
40
0.413401
1
Q7
0
LINE
8
CUT_SEQUENCE
10
6.03
20
0
30
0
11
6.03
21
0.73
31
0
0
TEXT
8
CUT_SEQUENCE
10
6.03
20
0.365
30
0
40
0.413401
1
Q8
0
LINE
8
CUT_SEQUENCE
10
6.51
20
0
30
0
11
6.51
21
3.91331
31
0
0
TEXT
8
CUT_SEQUENCE
10
6.51
20
1.956655
30
0
40
0.413401
1
Q9
0
LINE
8
CUT_SEQUENCE
10
6.869
20
2.19
30
0
11
6.869
21
3.91331
31
0
0
TEXT
8
CUT_SEQUENCE
10
6.869
20
3.051655
30
0
40
0.413401
1
Q10
0
LINE
8
CUT_SEQUENCE
10
6.99
20
0
30
0
11
6.99
21
3.91331
31
0
0
TEXT
8
CUT_SEQUENCE
10
6.99
20
1.956655
30
0
40
0.413401
1
Q11
0
LINE
8
CUT_SEQUENCE
10
0
20
0
30
0
11
6.99
21
0
31
0
0
TEXT
8
CUT_SEQUENCE
10
3.495
20
0
30
0
40
0.413401
1
Q12
0
LINE
8
CUT_SEQUENCE
10
0
20
1.46
30
0
11
6.99
21
1.46
31
0
0
TEXT
8
CUT_SEQUENCE
10
3.495
20
1.46
30
0
40
0.413401
1
Q13
0
LINE
8
CUT_SEQUENCE
10
0
20
2.92
30
0
11
6.99
21
2.92
31
0
0
TEXT
8
CUT_SEQUENCE
10
3.495
20
2.92
30
0
40
0.413401
1
Q14
0
LINE
8
CUT_SEQUENCE
10
0
20
3.913
30
0
11
6.99
21
3.913
31
0
0
TEXT
8
CUT_SEQUENCE
10
3.495
20
3.913
30
0
40
0.413401
1
Q15
0
LINE
8
CUT_SEQUENCE
10
0.93
20
0
30
0
11
0.93
21
3.91331
31
0
0
TEXT
8
CUT_SEQUENCE
10
0.93
20
1.956655
30
0
40
0.413401
1
F1
0
LINE
8
CUT_SEQUENCE
10
1.86
20
0
30
0
11
1.86
21
3.91331
31
0
0
TEXT
8
CUT_SEQUENCE
10
1.86
20
1.956655
30
0
40
0.413401
1
F2
0
LINE
8
CUT_SEQUENCE
10
2.64
20
0.73
30
0
11
2.64
21
3.91331
31
0
0
TEXT
8
CUT_SEQUENCE
10
2.64
20
2.321655
30
0
40
0.413401
1
F3
0
LINE
8
CUT_SEQUENCE
10
2.79
20
0
30
0
11
2.79
21
3.91331
31
0
0
TEXT
8
CUT_SEQUENCE
10
2.79
20
1.956655
30
0
40
0.413401
1
F4
0
LINE
8
CUT_SEQUENCE
10
3.24
20
0
30
0
11
3.24
21
0.73
31
0
0
TEXT
8
CUT_SEQUENCE
10
3.24
20
0.365
30
0
40
0.413401
1
F5
0
LINE
8
CUT_SEQUENCE
10
3.57
20
0.73
30
0
11
3.57
21
3.91331
31
0
0
TEXT
8
CUT_SEQUENCE
10
3.57
20
2.321655
30
0
40
0.413401
1
F6
0
LINE
8
CUT_SEQUENCE
10
3.9
20
2.19
30
0
11
3.9
21
3.65
31
0
0
TEXT
8
CUT_SEQUENCE
10
3.9
20
2.92
30
0
40
0.413401
1
F7
0
LINE
8
CUT_SEQUENCE
10
4.17
20
0
30
0
11
4.17
21
0.73
31
0
0
TEXT
8
CUT_SEQUENCE
10
4.17
20
0.365
30
0
40
0.413401
1
F8
0
LINE
8
CUT_SEQUENCE
10
4.65
20
0
30
0
11
4.65
21
3.91331
31
0
0
TEXT
8
CUT_SEQUENCE
10
4.65
20
1.956655
30
0
40
0.413401
1
F9
0
LINE
8
CUT_SEQUENCE
10
4.83
20
2.19
30
0
11
4.83
21
3.65
31
0
0
TEXT
8
CUT_SEQUENCE
10
4.83
20
2.92
30
0
40
0.413401
1
F10
0
LINE
8
CUT_SEQUENCE
10
5.43
20
0.73
30
0
11
5.43
21
3.91331
31
0
0
TEXT
8
CUT_SEQUENCE
10
5.43
20
2.321655
30
0
40
0.413401
1
F11
0
LINE
8
CUT_SEQUENCE
10
5.58
20
0
30
0
11
5.58
21
3.91331
31
0
0
TEXT
8
CUT_SEQUENCE
10
5.58
20
1.956655
30
0
40
0.413401
1
F12
0
LINE
8
CUT_SEQUENCE
10
5.76
20
2.19
30
0
11
5.76
21
3.65
31
0
0
TEXT
8
CUT_SEQUENCE
10
5.76
20
2.92
30
0
40
0.413401
1
F13
0
LINE
8
CUT_SEQUENCE
10
5.939
20
2.19
30
0
11
5.939
21
2.92
31
0
0
TEXT
8
CUT_SEQUENCE
10
5.939
20
2.555
30
0
40
0.413401
1
F14
0
LINE
8
CUT_SEQUENCE
10
6.269
20
2.92
30
0
11
6.269
21
3.65
31
0
0
TEXT
8
CUT_SEQUENCE
10
6.269
20
3.285
30
0
40
0.413401
1
F15
0
LINE
8
CUT_SEQUENCE
10
6.36
20
0.73
30
0
11
6.36
21
3.91331
31
0
0
TEXT
8
CUT_SEQUENCE
10
6.36
20
2.321655
30
0
40
0.413401
1
F16
0
LINE
8
CUT_SEQUENCE
10
6.539
20
3.65
30
0
11
6.539
21
3.91331
31
0
0
TEXT
8
CUT_SEQUENCE
10
6.539
20
3.781655
30
0
40
0.413401
1
F17
0
LINE
8
CUT_SEQUENCE
10
6.69
20
2.19
30
0
11
6.69
21
3.65
31
0
0
TEXT
8
CUT_SEQUENCE
10
6.69
20
2.92
30
0
40
0.413401
1
F18
0
LINE
8
CUT_SEQUENCE
10
6.899
20
2.92
30
0
11
6.899
21
3.65
31
0
0
TEXT
8
CUT_SEQUENCE
10
6.899
20
3.285
30
0
40
0.413401
1
F19
0
LINE
8
CUT_SEQUENCE
10
6.96
20
0
30
0
11
6.96
21
0.73
31
0
0
TEXT
8
CUT_SEQUENCE
10
6.96
20
0.365
30
0
40
0.413401
1
F20
0
LINE
8
CUT_SEQUENCE
10
0
20
0.73
30
0
11
6.99
21
0.73
31
0
0
TEXT
8
CUT_SEQUENCE
10
3.495
20
0.73
30
0
40
0.413401
1
F21
0
LINE
8
CUT_SEQUENCE
10
0
20
2.19
30
0
11
6.99
21
2.19
31
0
0
TEXT
8
CUT_SEQUENCE
10
3.495
20
2.19
30
0
40
0.413401
1
F22
0
LINE
8
CUT_SEQUENCE
10
0
20
3.65
30
0
11
6.99
21
3.65
31
0
0
TEXT
8
CUT_SEQUENCE
10
3.495
20
3.65
30
0
40
0.413401
1
F23
0
LINE
8
CUT_SEQUENCE
10
0
20
8.7
30
0
11
0
21
4.3
31
0
0
TEXT
8
CUT_SEQUENCE
10
0
20
6.5
30
0
40
0.413401
1
Q1
0
LINE
8
CUT_SEQUENCE
10
0
20
-4.7
30
0
11
0
21
-0.3
31
0
0
TEXT
8
CUT_SEQUENCE
10
0
20
-2.5
30
0
40
0.413401
1
Q1
0
LINE
8
CUT_SEQUENCE
10
2.31
20
-4.7
30
0
11
2.31
21
-0.3
31
0
0
TEXT
8
CUT_SEQUENCE
10
2.31
20
-2.5
30
0
40
0.413401
1
Q2
0
LINE
8
CUT_SEQUENCE
10
3.72
20
8.7
30
0
11
3.72
21
4.3
31
0
0
TEXT
8
CUT_SEQUENCE
10
3.72
20
6.5
30
0
40
0.413401
1
Q4
0
LINE
8
CUT_SEQUENCE
10
3.72
20
-4.7
30
0
11
3.72
21
-0.3
31
0
0
TEXT
8
CUT_SEQUENCE
10
3.72
20
-2.5
30
0
40
0.413401
1
Q4
0
LINE
8
CUT_SEQUENCE
10
4.5
20
8.7
30
0
11
4.5
21
4.3
31
0
0
TEXT
8
CUT_SEQUENCE
10
4.5
20
6.5
30
0
40
0.413401
1
Q5
0
LINE
8
CUT_SEQUENCE
10
5.1
20
-4.7
30
0
11
5.1
21
-0.3
31
0
0
TEXT
8
CUT_SEQUENCE
10
5.1
20
-2.5
30
0
40
0.413401
1
Q6
0
LINE
8
CUT_SEQUENCE
10
5.609
20
8.7
30
0
11
5.609
21
4.3
31
0
0
TEXT
8
CUT_SEQUENCE
10
5.609
20
6.5
30
0
40
0.413401
1
Q7
0
LINE
8
CUT_SEQUENCE
10
6.03
20
-4.7
30
0
11
6.03
21
-0.3
31
0
0
TEXT
8
CUT_SEQUENCE
10
6.03
20
-2.5
30
0
40
0.413401
1
Q8
0
LINE
8
CUT_SEQUENCE
10
6.51
20
8.7
30
0
11
6.51
21
4.3
31
0
0
TEXT
8
CUT_SEQUENCE
10
6.51
20
6.5
30
0
40
0.413401
1
Q9
0
LINE
8
CUT_SEQUENCE
10
6.51
20
-4.7
30
0
11
6.51
21
-0.3
31
0
0
TEXT
8
CUT_SEQUENCE
10
6.51
20
-2.5
30
0
40
0.413401
1
Q9
0
LINE
8
CUT_SEQUENCE
10
6.869
20
8.7
30
0
11
6.869
21
4.3
31
0
0
TEXT
8
CUT_SEQUENCE
10
6.869
20
6.5
30
0
40
0.413401
1
Q10
0
LINE
8
CUT_SEQUENCE
10
6.99
20
8.7
30
0
11
6.99
21
4.3
31
0
0
TEXT
8
CUT_SEQUENCE
10
6.99
20
6.5
30
0
40
0.413401
1
Q11
0
LINE
8
CUT_SEQUENCE
10
6.99
20
-4.7
30
0
11
6.99
21
-0.3
31
0
0
TEXT
8
CUT_SEQUENCE
10
6.99
20
-2.5
30
0
40
0.413401
1
Q11
0
LINE
8
CUT_SEQUENCE
10
11.7
20
0
30
0
11
7.3
21
0
31
0
0
TEXT
8
CUT_SEQUENCE
10
9.5
20
0
30
0
40
0.413401
1
Q12
0
LINE
8
CUT_SEQUENCE
10
-4.7
20
0
30
0
11
-0.3
21
0
31
0
0
TEXT
8
CUT_SEQUENCE
10
-2.5
20
0
30
0
40
0.413401
1
Q12
0
LINE
8
CUT_SEQUENCE
10
11.7
20
1.46
30
0
11
7.3
21
1.46
31
0
0
TEXT
8
CUT_SEQUENCE
10
9.5
20
1.46
30
0
40
0.413401
1
Q13
0
LINE
8
CUT_SEQUENCE
10
-4.7
20
1.46
30
0
11
-0.3
21
1.46
31
0
0
TEXT
8
CUT_SEQUENCE
10
-2.5
20
1.46
30
0
40
0.413401
1
Q13
0
LINE
8
CUT_SEQUENCE
10
11.7
20
2.92
30
0
11
7.3
21
2.92
31
0
0
TEXT
8
CUT_SEQUENCE
10
9.5
20
2.92
30
0
40
0.413401
1
Q14
0
LINE
8
CUT_SEQUENCE
10
-4.7
20
2.92
30
0
11
-0.3
21
2.92
31
0
0
TEXT
8
CUT_SEQUENCE
10
-2.5
20
2.92
30
0
40
0.413401
1
Q14
0
LINE
8
CUT_SEQUENCE
10
11.7
20
3.913
30
0
11
7.3
21
3.913
31
0
0
TEXT
8
CUT_SEQUENCE
10
9.5
20
3.913
30
0
40
0.413401
1
Q15
0
LINE
8
CUT_SEQUENCE
10
-4.7
20
3.913
30
0
11
-0.3
21
3.913
31
0
0
TEXT
8
CUT_SEQUENCE
10
-2.5
20
3.913
30
0
40
0.413401
1
Q15
0
LINE
8
CUT_SEQUENCE
10
0.93
20
8.7
30
0
11
0.93
21
4.3
31
0
0
TEXT
8
CUT_SEQUENCE
10
0.93
20
6.5
30
0
40
0.413401
1
F1
0
LINE
8
CUT_SEQUENCE
10
0.93
20
-4.7
30
0
11
0.93
21
-0.3
31
0
0
TEXT
8
CUT_SEQUENCE
10
0.93
20
-2.5
30
0
40
0.413401
1
F1
0
LINE
8
CUT_SEQUENCE
10
1.86
20
8.7
30
0
11
1.86
21
4.3
31
0
0
TEXT
8
CUT_SEQUENCE
10
1.86
20
6.5
30
0
40
0.413401
1
F2
0
LINE
8
CUT_SEQUENCE
10
1.86
20
-4.7
30
0
11
1.86
21
-0.3
31
0
0
TEXT
8
CUT_SEQUENCE
10
1.86
20
-2.5
30
0
40
0.413401
1
F2
0
LINE
8
CUT_SEQUENCE
10
2.64
20
8.7
30
0
11
2.64
21
4.3
31
0
0
TEXT
8
CUT_SEQUENCE
10
2.64
20
6.5
30
0
40
0.413401
1
F3
0
LINE
8
CUT_SEQUENCE
10
2.79
20
8.7
30
0
11
2.79
21
4.3
31
0
0
TEXT
8
CUT_SEQUENCE
10
2.79
20
6.5
30
0
40
0.413401
1
F4
0
LINE
8
CUT_SEQUENCE
10
2.79
20
-4.7
30
0
11
2.79
21
-0.3
31
0
0
TEXT
8
CUT_SEQUENCE
10
2.79
20
-2.5
30
0
40
0.413401
1
F4
0
LINE
8
CUT_SEQUENCE
10
3.24
20
-4.7
30
0
11
3.24
21
-0.3
31
0
0
TEXT
8
CUT_SEQUENCE
10
3.24
20
-2.5
30
0
40
0.413401
1
F5
0
LINE
8
CUT_SEQUENCE
10
3.57
20
8.7
30
0
11
3.57
21
4.3
31
0
0
TEXT
8
CUT_SEQUENCE
10
3.57
20
6.5
30
0
40
0.413401
1
F6
0
LINE
8
CUT_SEQUENCE
10
4.17
20
-4.7
30
0
11
4.17
21
-0.3
31
0
0
TEXT
8
CUT_SEQUENCE
10
4.17
20
-2.5
30
0
40
0.413401
1
F8
0
LINE
8
CUT_SEQUENCE
10
4.65
20
8.7
30
0
11
4.65
21
4.3
31
0
0
TEXT
8
CUT_SEQUENCE
10
4.65
20
6.5
30
0
40
0.413401
1
F9
0
LINE
8
CUT_SEQUENCE
10
4.65
20
-4.7
30
0
11
4.65
21
-0.3
31
0
0
TEXT
8
CUT_SEQUENCE
10
4.65
20
-2.5
30
0
40
0.413401
1
F9
0
LINE
8
CUT_SEQUENCE
10
5.43
20
8.7
30
0
11
5.43
21
4.3
31
0
0
TEXT
8
CUT_SEQUENCE
10
5.43
20
6.5
30
0
40
0.413401
1
F11
0
LINE
8
CUT_SEQUENCE
10
5.58
20
8.7
30
0
11
5.58
21
4.3
31
0
0
TEXT
8
CUT_SEQUENCE
10
5.58
20
6.5
30
0
40
0.413401
1
F12
0
LINE
8
CUT_SEQUENCE
10
5.58
20
-4.7
30
0
11
5.58
21
-0.3
31
0
0
TEXT
8
CUT_SEQUENCE
10
5.58
20
-2.5
30
0
40
0.413401
1
F12
0
LINE
8
CUT_SEQUENCE
10
6.36
20
8.7
30
0
11
6.36
21
4.3
31
0
0
TEXT
8
CUT_SEQUENCE
10
6.36
20
6.5
30
0
40
0.413401
1
F16
0
LINE
8
CUT_SEQUENCE
10
6.539
20
8.7
30
0
11
6.539
21
4.3
31
0
0
TEXT
8
CUT_SEQUENCE
10
6.539
20
6.5
30
0
40
0.413401
1
F17
0
LINE
8
CUT_SEQUENCE
10
6.96
20
-4.7
30
0
11
6.96
21
-0.3
31
0
0
TEXT
8
CUT_SEQUENCE
10
6.96
20
-2.5
30
0
40
0.413401
1
F20
0
LINE
8
CUT_SEQUENCE
10
11.7
20
0.73
30
0
11
7.3
21
0.73
31
0
0
TEXT
8
CUT_SEQUENCE
10
9.5
20
0.73
30
0
40
0.413401
1
F21
0
LINE
8
CUT_SEQUENCE
10
-4.7
20
0.73
30
0
11
-0.3
21
0.73
31
0
0
TEXT
8
CUT_SEQUENCE
10
-2.5
20
0.73
30
0
40
0.413401
1
F21
0
LINE
8
CUT_SEQUENCE
10
11.7
20
2.19
30
0
11
7.3
21
2.19
31
0
0
TEXT
8
CUT_SEQUENCE
10
9.5
20
2.19
30
0
40
0.413401
1
F22
0
LINE
8
CUT_SEQUENCE
10
-4.7
20
2.19
30
0
11
-0.3
21
2.19
31
0
0
TEXT
8
CUT_SEQUENCE
10
-2.5
20
2.19
30
0
40
0.413401
1
F22
0
LINE
8
CUT_SEQUENCE
10
11.7
20
3.65
30
0
11
7.3
21
3.65
31
0
0
TEXT
8
CUT_SEQUENCE
10
9.5
20
3.65
30
0
40
0.413401
1
F23
0
LINE
8
CUT_SEQUENCE
10
-4.7
20
3.65
30
0
11
-0.3
21
3.65
31
0
0
TEXT
8
CUT_SEQUENCE
10
-2.5
20
3.65
30
0
40
0.413401
1
F23
0
TEXT
8
TITLE
10
-4.7
20
-5.733501
30
0
40
0.661441
1
BOTTICINO G1 GPR BENCH - BLOCK CUT PLAN (BONDUA; TINTI ET AL. 2024)
0
TEXT
8
TITLE
10
-4.7
20
-6.924095
30
0
40
0.37206
1
units: m   (SCHEDULE = cut list, CUT_SEQUENCE = saw order, FRACTURES = bed/flaw traces)
0
LINE
8
SCHEDULE
10
-4.7
20
-7.833576
30
0
11
11.836021
21
-7.833576
31
0
0
LINE
8
SCHEDULE
10
-4.7
20
-8.619037
30
0
11
11.836021
21
-8.619037
31
0
0
LINE
8
SCHEDULE
10
-4.7
20
-9.404498
30
0
11
11.836021
21
-9.404498
31
0
0
LINE
8
SCHEDULE
10
-4.7
20
-7.833576
30
0
11
-4.7
21
-9.404498
31
0
0
LINE
8
SCHEDULE
10
-3.459798
20
-7.833576
30
0
11
-3.459798
21
-9.404498
31
0
0
LINE
8
SCHEDULE
10
0.674207
20
-7.833576
30
0
11
0.674207
21
-9.404498
31
0
0
LINE
8
SCHEDULE
10
6.875215
20
-7.833576
30
0
11
6.875215
21
-9.404498
31
0
0
LINE
8
SCHEDULE
10
8.942218
20
-7.833576
30
0
11
8.942218
21
-9.404498
31
0
0
LINE
8
SCHEDULE
10
11.836021
20
-7.833576
30
0
11
11.836021
21
-9.404498
31
0
0
TEXT
8
SCHEDULE
10
-4.51397
20
-8.433007
30
0
40
0.35139
1
#
0
TEXT
8
SCHEDULE
10
-3.273768
20
-8.433007
30
0
40
0.35139
1
PIECE
0
TEXT
8
SCHEDULE
10
0.860237
20
-8.433007
30
0
40
0.35139
1
SIZE (m)
0
TEXT
8
SCHEDULE
10
7.061245
20
-8.433007
30
0
40
0.35139
1
QTY
0
TEXT
8
SCHEDULE
10
9.128248
20
-8.433007
30
0
40
0.35139
1
OP
0
TEXT
8
SCHEDULE
10
-4.51397
20
-9.218468
30
0
40
0.33072
1
1
0
TEXT
8
SCHEDULE
10
-3.273768
20
-9.218468
30
0
40
0.33072
1
PLAN
0
TEXT
8
SCHEDULE
10
0.860237
20
-9.218468
30
0
40
0.33072
1
0.9 x 0.7 x 0.4
0
TEXT
8
SCHEDULE
10
7.061245
20
-9.218468
30
0
40
0.33072
1
224
0
TEXT
8
SCHEDULE
10
9.128248
20
-9.218468
30
0
40
0.33072
1
saw
0
ENDSEC
0
EOF
