0
SECTION
2
HEADER
9
$ACADVER
1
AC1015
9
$INSUNITS
70
6
9
$HANDSEED
5
FFFF
0
ENDSEC
0
SECTION
2
TABLES
0
TABLE
2
LAYER
70
9
0
LAYER
2
0
70
0
62
7
6
CONTINUOUS
0
LAYER
2
PLAN
70
0
62
1
6
CONTINUOUS
0
LAYER
2
NORTH
70
0
62
2
6
CONTINUOUS
0
LAYER
2
SOUTH
70
0
62
3
6
CONTINUOUS
0
LAYER
2
EAST
70
0
62
4
6
CONTINUOUS
0
LAYER
2
WEST
70
0
62
5
6
CONTINUOUS
0
LAYER
2
TITLE
70
0
62
5
6
CONTINUOUS
0
LAYER
2
SCHEDULE
70
0
62
7
6
CONTINUOUS
0
LAYER
2
CUT_SEQUENCE
70
0
62
1
6
CONTINUOUS
0
LAYER
2
FRACTURES
70
0
62
30
6
CONTINUOUS
0
ENDTAB
0
ENDSEC
0
SECTION
2
ENTITIES
0
LWPOLYLINE
5
100
100
AcDbEntity
8
PLAN
100
AcDbPolyline
90
4
70
1
10
0
20
0
10
7
20
0
10
7
20
4
10
0
20
4
0
TEXT
5
101
100
AcDbEntity
8
PLAN
100
AcDbText
10
3.5
20
2
30
0
40
0.413401
1
PLAN
0
LWPOLYLINE
5
102
100
AcDbEntity
8
NORTH
100
AcDbPolyline
90
4
70
1
10
0
20
4.3
10
7
20
4.3
10
7
20
8.7
10
0
20
8.7
0
TEXT
5
103
100
AcDbEntity
8
NORTH
100
AcDbText
10
3.5
20
6.5
30
0
40
0.413401
1
NORTH
0
LWPOLYLINE
5
104
100
AcDbEntity
8
SOUTH
100
AcDbPolyline
90
4
70
1
10
0
20
-0.3
10
7
20
-0.3
10
7
20
-4.7
10
0
20
-4.7
0
TEXT
5
105
100
AcDbEntity
8
SOUTH
100
AcDbText
10
3.5
20
-2.5
30
0
40
0.413401
1
SOUTH
0
LWPOLYLINE
5
106
100
AcDbEntity
8
EAST
100
AcDbPolyline
90
4
70
1
10
7.3
20
0
10
7.3
20
4
10
11.7
20
4
10
11.7
20
0
0
TEXT
5
107
100
AcDbEntity
8
EAST
100
AcDbText
10
9.5
20
2
30
0
40
0.413401
1
EAST
0
LWPOLYLINE
5
108
100
AcDbEntity
8
WEST
100
AcDbPolyline
90
4
70
1
10
-0.3
20
0
10
-0.3
20
4
10
-4.7
20
4
10
-4.7
20
0
0
TEXT
5
109
100
AcDbEntity
8
WEST
100
AcDbText
10
-2.5
20
2
30
0
40
0.413401
1
WEST
0
LWPOLYLINE
5
10A
100
AcDbEntity
8
FRACTURES
100
AcDbPolyline
90
5
70
0
10
3.299992
20
-0.315625
10
3.437491
20
-0.315625
10
3.574991
20
-0.315625
10
3.84999
20
-0.315625
10
4.12499
20
-0.315625
0
LWPOLYLINE
5
10B
100
AcDbEntity
8
FRACTURES
100
AcDbPolyline
90
25
70
0
10
0
20
-1.576001
10
0.274999
20
-1.544854
10
0.549999
20
-1.511123
10
0.824998
20
-1.474956
10
1.099997
20
-1.436648
10
1.374997
20
-1.396641
10
1.649996
20
-1.355507
10
1.924995
20
-1.313932
10
2.199994
20
-1.272678
10
2.474994
20
-1.232553
10
2.749993
20
-1.194359
10
3.024992
20
-1.158852
10
3.299992
20
-1.126694
10
3.574991
20
-1.098413
10
3.84999
20
-1.074367
10
4.12499
20
-1.054725
10
4.399989
20
-1.039449
10
4.674988
20
-1.028301
10
4.949988
20
-1.020849
10
5.224987
20
-1.016496
10
5.499986
20
-1.014515
10
5.572963
20
-1.014402
10
5.774985
20
-1.014087
10
6.049985
20
-1.014349
10
6.324984
20
-1.014439
0
LWPOLYLINE
5
10C
100
AcDbEntity
8
FRACTURES
100
AcDbPolyline
90
4
70
0
10
2.430202
20
-3.43774
10
2.624993
20
-3.444233
10
2.819785
20
-3.45237
10
3.014576
20
-3.462378
0
LWPOLYLINE
5
10D
100
AcDbEntity
8
FRACTURES
100
AcDbPolyline
90
2
70
0
10
-0.315625
20
1.510413
10
-0.315625
20
1.359372
0
LWPOLYLINE
5
10E
100
AcDbEntity
8
FRACTURES
100
AcDbPolyline
90
19
70
0
10
-1.54105
20
2.567702
10
-1.545068
20
2.416661
10
-1.548937
20
2.265619
10
-1.552628
20
2.114578
10
-1.556114
20
1.963537
10
-1.559369
20
1.812495
10
-1.562373
20
1.661454
10
-1.565107
20
1.510413
10
-1.567555
20
1.359372
10
-1.569708
20
1.20833
10
-1.571556
20
1.057289
10
-1.573096
20
0.906248
10
-1.574326
20
0.755206
10
-1.575248
20
0.604165
10
-1.575868
20
0.453124
10
-1.576193
20
0.302083
10
-1.576213
20
0.226358
10
-1.576233
20
0.151041
10
-1.576001
20
0
0
LINE
5
10F
100
AcDbEntity
8
CUT_SEQUENCE
100
AcDbLine
10
0
20
0
30
0
11
0
21
3.91331
31
0
0
TEXT
5
110
100
AcDbEntity
8
CUT_SEQUENCE
100
AcDbText
10
0
20
1.956655
30
0
40
0.413401
1
1
0
LINE
5
111
100
AcDbEntity
8
CUT_SEQUENCE
100
AcDbLine
10
0.93
20
0
30
0
11
0.93
21
3.91331
31
0
0
TEXT
5
112
100
AcDbEntity
8
CUT_SEQUENCE
100
AcDbText
10
0.93
20
1.956655
30
0
40
0.413401
1
2
0
LINE
5
113
100
AcDbEntity
8
CUT_SEQUENCE
100
AcDbLine
10
1.86
20
0
30
0
11
1.86
21
3.91331
31
0
0
TEXT
5
114
100
AcDbEntity
8
CUT_SEQUENCE
100
AcDbText
10
1.86
20
1.956655
30
0
40
0.413401
1
3
0
LINE
5
115
100
AcDbEntity
8
CUT_SEQUENCE
100
AcDbLine
10
2.31
20
0
30
0
11
2.31
21
0.73
31
0
0
TEXT
5
116
100
AcDbEntity
8
CUT_SEQUENCE
100
AcDbText
10
2.31
20
0.365
30
0
40
0.413401
1
4
0
LINE
5
117
100
AcDbEntity
8
CUT_SEQUENCE
100
AcDbLine
10
2.64
20
0.73
30
0
11
2.64
21
3.91331
31
0
0
TEXT
5
118
100
AcDbEntity
8
CUT_SEQUENCE
100
AcDbText
10
2.64
20
2.321655
30
0
40
0.413401
1
5
0
LINE
5
119
100
AcDbEntity
8
CUT_SEQUENCE
100
AcDbLine
10
2.79
20
0
30
0
11
2.79
21
3.91331
31
0
0
TEXT
5
11A
100
AcDbEntity
8
CUT_SEQUENCE
100
AcDbText
10
2.79
20
1.956655
30
0
40
0.413401
1
6
0
LINE
5
11B
100
AcDbEntity
8
CUT_SEQUENCE
100
AcDbLine
10
2.97
20
2.19
30
0
11
2.97
21
3.65
31
0
0
TEXT
5
11C
100
AcDbEntity
8
CUT_SEQUENCE
100
AcDbText
10
2.97
20
2.92
30
0
40
0.413401
1
7
0
LINE
5
11D
100
AcDbEntity
8
CUT_SEQUENCE
100
AcDbLine
10
3.24
20
0
30
0
11
3.24
21
0.73
31
0
0
TEXT
5
11E
100
AcDbEntity
8
CUT_SEQUENCE
100
AcDbText
10
3.24
20
0.365
30
0
40
0.413401
1
8
0
LINE
5
11F
100
AcDbEntity
8
CUT_SEQUENCE
100
AcDbLine
10
3.57
20
0.73
30
0
11
3.57
21
3.91331
31
0
0
TEXT
5
120
100
AcDbEntity
8
CUT_SEQUENCE
100
AcDbText
10
3.57
20
2.321655
30
0
40
0.413401
1
9
0
LINE
5
121
100
AcDbEntity
8
CUT_SEQUENCE
100
AcDbLine
10
3.72
20
0
30
0
11
3.72
21
3.91331
31
0
0
TEXT
5
122
100
AcDbEntity
8
CUT_SEQUENCE
100
AcDbText
10
3.72
20
1.956655
30
0
40
0.413401
1
10
0
LINE
5
123
100
AcDbEntity
8
CUT_SEQUENCE
100
AcDbLine
10
3.9
20
2.19
30
0
11
3.9
21
3.65
31
0
0
TEXT
5
124
100
AcDbEntity
8
CUT_SEQUENCE
100
AcDbText
10
3.9
20
2.92
30
0
40
0.413401
1
11
0
LINE
5
125
100
AcDbEntity
8
CUT_SEQUENCE
100
AcDbLine
10
4.17
20
0
30
0
11
4.17
21
0.73
31
0
0
TEXT
5
126
100
AcDbEntity
8
CUT_SEQUENCE
100
AcDbText
10
4.17
20
0.365
30
0
40
0.413401
1
12
0
LINE
5
127
100
AcDbEntity
8
CUT_SEQUENCE
100
AcDbLine
10
4.5
20
0.73
30
0
11
4.5
21
3.91331
31
0
0
TEXT
5
128
100
AcDbEntity
8
CUT_SEQUENCE
100
AcDbText
10
4.5
20
2.321655
30
0
40
0.413401
1
13
0
LINE
5
129
100
AcDbEntity
8
CUT_SEQUENCE
100
AcDbLine
10
4.65
20
0
30
0
11
4.65
21
3.91331
31
0
0
TEXT
5
12A
100
AcDbEntity
8
CUT_SEQUENCE
100
AcDbText
10
4.65
20
1.956655
30
0
40
0.413401
1
14
0
LINE
5
12B
100
AcDbEntity
8
CUT_SEQUENCE
100
AcDbLine
10
4.83
20
2.19
30
0
11
4.83
21
3.65
31
0
0
TEXT
5
12C
100
AcDbEntity
8
CUT_SEQUENCE
100
AcDbText
10
4.83
20
2.92
30
0
40
0.413401
1
15
0
LINE
5
12D
100
AcDbEntity
8
CUT_SEQUENCE
100
AcDbLine
10
5.1
20
0
30
0
11
5.1
21
0.73
31
0
0
TEXT
5
12E
100
AcDbEntity
8
CUT_SEQUENCE
100
AcDbText
10
5.1
20
0.365
30
0
40
0.413401
1
16
0
LINE
5
12F
100
AcDbEntity
8
CUT_SEQUENCE
100
AcDbLine
10
5.43
20
0.73
30
0
11
5.43
21
3.91331
31
0
0
TEXT
5
130
100
AcDbEntity
8
CUT_SEQUENCE
100
AcDbText
10
5.43
20
2.321655
30
0
40
0.413401
1
17
0
LINE
5
131
100
AcDbEntity
8
CUT_SEQUENCE
100
AcDbLine
10
5.58
20
0
30
0
11
5.58
21
3.91331
31
0
0
TEXT
5
132
100
AcDbEntity
8
CUT_SEQUENCE
100
AcDbText
10
5.58
20
1.956655
30
0
40
0.413401
1
18
0
LINE
5
133
100
AcDbEntity
8
CUT_SEQUENCE
100
AcDbLine
10
5.609
20
3.65
30
0
11
5.609
21
3.91331
31
0
0
TEXT
5
134
100
AcDbEntity
8
CUT_SEQUENCE
100
AcDbText
10
5.609
20
3.781655
30
0
40
0.413401
1
19
0
LINE
5
135
100
AcDbEntity
8
CUT_SEQUENCE
100
AcDbLine
10
5.76
20
2.19
30
0
11
5.76
21
3.65
31
0
0
TEXT
5
136
100
AcDbEntity
8
CUT_SEQUENCE
100
AcDbText
10
5.76
20
2.92
30
0
40
0.413401
1
20
0
LINE
5
137
100
AcDbEntity
8
CUT_SEQUENCE
100
AcDbLine
10
5.939
20
2.19
30
0
11
5.939
21
2.92
31
0
0
TEXT
5
138
100
AcDbEntity
8
CUT_SEQUENCE
100
AcDbText
10
5.939
20
2.555
30
0
40
0.413401
1
21
0
LINE
5
139
100
AcDbEntity
8
CUT_SEQUENCE
100
AcDbLine
10
6.03
20
0
30
0
11
6.03
21
0.73
31
0
0
TEXT
5
13A
100
AcDbEntity
8
CUT_SEQUENCE
100
AcDbText
10
6.03
20
0.365
30
0
40
0.413401
1
22
0
LINE
5
13B
100
AcDbEntity
8
CUT_SEQUENCE
100
AcDbLine
10
6.269
20
2.92
30
0
11
6.269
21
3.65
31
0
0
TEXT
5
13C
100
AcDbEntity
8
CUT_SEQUENCE
100
AcDbText
10
6.269
20
3.285
30
0
40
0.413401
1
23
0
LINE
5
13D
100
AcDbEntity
8
CUT_SEQUENCE
100
AcDbLine
10
6.36
20
0.73
30
0
11
6.36
21
3.91331
31
0
0
TEXT
5
13E
100
AcDbEntity
8
CUT_SEQUENCE
100
AcDbText
10
6.36
20
2.321655
30
0
40
0.413401
1
24
0
LINE
5
13F
100
AcDbEntity
8
CUT_SEQUENCE
100
AcDbLine
10
6.51
20
0
30
0
11
6.51
21
3.91331
31
0
0
TEXT
5
140
100
AcDbEntity
8
CUT_SEQUENCE
100
AcDbText
10
6.51
20
1.956655
30
0
40
0.413401
1
25
0
LINE
5
141
100
AcDbEntity
8
CUT_SEQUENCE
100
AcDbLine
10
6.539
20
3.65
30
0
11
6.539
21
3.91331
31
0
0
TEXT
5
142
100
AcDbEntity
8
CUT_SEQUENCE
100
AcDbText
10
6.539
20
3.781655
30
0
40
0.413401
1
26
0
LINE
5
143
100
AcDbEntity
8
CUT_SEQUENCE
100
AcDbLine
10
6.69
20
2.19
30
0
11
6.69
21
3.65
31
0
0
TEXT
5
144
100
AcDbEntity
8
CUT_SEQUENCE
100
AcDbText
10
6.69
20
2.92
30
0
40
0.413401
1
27
0
LINE
5
145
100
AcDbEntity
8
CUT_SEQUENCE
100
AcDbLine
10
6.869
20
2.19
30
0
11
6.869
21
3.91331
31
0
0
TEXT
5
146
100
AcDbEntity
8
CUT_SEQUENCE
100
AcDbText
10
6.869
20
3.051655
30
0
40
0.413401
1
28
0
LINE
5
147
100
AcDbEntity
8
CUT_SEQUENCE
100
AcDbLine
10
6.899
20
2.92
30
0
11
6.899
21
3.65
31
0
0
TEXT
5
148
100
AcDbEntity
8
CUT_SEQUENCE
100
AcDbText
10
6.899
20
3.285
30
0
40
0.413401
1
29
0
LINE
5
149
100
AcDbEntity
8
CUT_SEQUENCE
100
AcDbLine
10
6.96
20
0
30
0
11
6.96
21
0.73
31
0
0
TEXT
5
14A
100
AcDbEntity
8
CUT_SEQUENCE
100
AcDbText
10
6.96
20
0.365
30
0
40
0.413401
1
30
0
LINE
5
14B
100
AcDbEntity
8
CUT_SEQUENCE
100
AcDbLine
10
6.99
20
0
30
0
11
6.99
21
3.91331
31
0
0
TEXT
5
14C
100
AcDbEntity
8
CUT_SEQUENCE
100
AcDbText
10
6.99
20
1.956655
30
0
40
0.413401
1
31
0
LINE
5
14D
100
AcDbEntity
8
CUT_SEQUENCE
100
AcDbLine
10
0
20
0
30
0
11
6.99
21
0
31
0
0
TEXT
5
14E
100
AcDbEntity
8
CUT_SEQUENCE
100
AcDbText
10
3.495
20
0
30
0
40
0.413401
1
32
0
LINE
5
14F
100
AcDbEntity
8
CUT_SEQUENCE
100
AcDbLine
10
0
20
0.73
30
0
11
6.99
21
0.73
31
0
0
TEXT
5
150
100
AcDbEntity
8
CUT_SEQUENCE
100
AcDbText
10
3.495
20
0.73
30
0
40
0.413401
1
33
0
LINE
5
151
100
AcDbEntity
8
CUT_SEQUENCE
100
AcDbLine
10
0
20
1.46
30
0
11
6.99
21
1.46
31
0
0
TEXT
5
152
100
AcDbEntity
8
CUT_SEQUENCE
100
AcDbText
10
3.495
20
1.46
30
0
40
0.413401
1
34
0
LINE
5
153
100
AcDbEntity
8
CUT_SEQUENCE
100
AcDbLine
10
0
20
2.19
30
0
11
6.99
21
2.19
31
0
0
TEXT
5
154
100
AcDbEntity
8
CUT_SEQUENCE
100
AcDbText
10
3.495
20
2.19
30
0
40
0.413401
1
35
0
LINE
5
155
100
AcDbEntity
8
CUT_SEQUENCE
100
AcDbLine
10
0
20
2.92
30
0
11
6.99
21
2.92
31
0
0
TEXT
5
156
100
AcDbEntity
8
CUT_SEQUENCE
100
AcDbText
10
3.495
20
2.92
30
0
40
0.413401
1
36
0
LINE
5
157
100
AcDbEntity
8
CUT_SEQUENCE
100
AcDbLine
10
0
20
3.65
30
0
11
6.99
21
3.65
31
0
0
TEXT
5
158
100
AcDbEntity
8
CUT_SEQUENCE
100
AcDbText
10
3.495
20
3.65
30
0
40
0.413401
1
37
0
LINE
5
159
100
AcDbEntity
8
CUT_SEQUENCE
100
AcDbLine
10
0
20
3.913
30
0
11
6.99
21
3.913
31
0
0
TEXT
5
15A
100
AcDbEntity
8
CUT_SEQUENCE
100
AcDbText
10
3.495
20
3.913
30
0
40
0.413401
1
38
0
LINE
5
15B
100
AcDbEntity
8
CUT_SEQUENCE
100
AcDbLine
10
0
20
8.7
30
0
11
0
21
4.3
31
0
0
TEXT
5
15C
100
AcDbEntity
8
CUT_SEQUENCE
100
AcDbText
10
0
20
6.5
30
0
40
0.413401
1
39
0
LINE
5
15D
100
AcDbEntity
8
CUT_SEQUENCE
100
AcDbLine
10
0
20
-4.7
30
0
11
0
21
-0.3
31
0
0
TEXT
5
15E
100
AcDbEntity
8
CUT_SEQUENCE
100
AcDbText
10
0
20
-2.5
30
0
40
0.413401
1
40
0
LINE
5
15F
100
AcDbEntity
8
CUT_SEQUENCE
100
AcDbLine
10
0.93
20
8.7
30
0
11
0.93
21
4.3
31
0
0
TEXT
5
160
100
AcDbEntity
8
CUT_SEQUENCE
100
AcDbText
10
0.93
20
6.5
30
0
40
0.413401
1
41
0
LINE
5
161
100
AcDbEntity
8
CUT_SEQUENCE
100
AcDbLine
10
0.93
20
-4.7
30
0
11
0.93
21
-0.3
31
0
0
TEXT
5
162
100
AcDbEntity
8
CUT_SEQUENCE
100
AcDbText
10
0.93
20
-2.5
30
0
40
0.413401
1
42
0
LINE
5
163
100
AcDbEntity
8
CUT_SEQUENCE
100
AcDbLine
10
1.86
20
8.7
30
0
11
1.86
21
4.3
31
0
0
TEXT
5
164
100
AcDbEntity
8
CUT_SEQUENCE
100
AcDbText
10
1.86
20
6.5
30
0
40
0.413401
1
43
0
LINE
5
165
100
AcDbEntity
8
CUT_SEQUENCE
100
AcDbLine
10
1.86
20
-4.7
30
0
11
1.86
21
-0.3
31
0
0
TEXT
5
166
100
AcDbEntity
8
CUT_SEQUENCE
100
AcDbText
10
1.86
20
-2.5
30
0
40
0.413401
1
44
0
LINE
5
167
100
AcDbEntity
8
CUT_SEQUENCE
100
AcDbLine
10
2.31
20
-4.7
30
0
11
2.31
21
-0.3
31
0
0
TEXT
5
168
100
AcDbEntity
8
CUT_SEQUENCE
100
AcDbText
10
2.31
20
-2.5
30
0
40
0.413401
1
45
0
LINE
5
169
100
AcDbEntity
8
CUT_SEQUENCE
100
AcDbLine
10
2.64
20
8.7
30
0
11
2.64
21
4.3
31
0
0
TEXT
5
16A
100
AcDbEntity
8
CUT_SEQUENCE
100
AcDbText
10
2.64
20
6.5
30
0
40
0.413401
1
46
0
LINE
5
16B
100
AcDbEntity
8
CUT_SEQUENCE
100
AcDbLine
10
2.79
20
8.7
30
0
11
2.79
21
4.3
31
0
0
TEXT
5
16C
100
AcDbEntity
8
CUT_SEQUENCE
100
AcDbText
10
2.79
20
6.5
30
0
40
0.413401
1
47
0
LINE
5
16D
100
AcDbEntity
8
CUT_SEQUENCE
100
AcDbLine
10
2.79
20
-4.7
30
0
11
2.79
21
-0.3
31
0
0
TEXT
5
16E
100
AcDbEntity
8
CUT_SEQUENCE
100
AcDbText
10
2.79
20
-2.5
30
0
40
0.413401
1
48
0
LINE
5
16F
100
AcDbEntity
8
CUT_SEQUENCE
100
AcDbLine
10
3.24
20
-4.7
30
0
11
3.24
21
-0.3
31
0
0
TEXT
5
170
100
AcDbEntity
8
CUT_SEQUENCE
100
AcDbText
10
3.24
20
-2.5
30
0
40
0.413401
1
49
0
LINE
5
171
100
AcDbEntity
8
CUT_SEQUENCE
100
AcDbLine
10
3.57
20
8.7
30
0
11
3.57
21
4.3
31
0
0
TEXT
5
172
100
AcDbEntity
8
CUT_SEQUENCE
100
AcDbText
10
3.57
20
6.5
30
0
40
0.413401
1
50
0
LINE
5
173
100
AcDbEntity
8
CUT_SEQUENCE
100
AcDbLine
10
3.72
20
8.7
30
0
11
3.72
21
4.3
31
0
0
TEXT
5
174
100
AcDbEntity
8
CUT_SEQUENCE
100
AcDbText
10
3.72
20
6.5
30
0
40
0.413401
1
51
0
LINE
5
175
100
AcDbEntity
8
CUT_SEQUENCE
100
AcDbLine
10
3.72
20
-4.7
30
0
11
3.72
21
-0.3
31
0
0
TEXT
5
176
100
AcDbEntity
8
CUT_SEQUENCE
100
AcDbText
10
3.72
20
-2.5
30
0
40
0.413401
1
52
0
LINE
5
177
100
AcDbEntity
8
CUT_SEQUENCE
100
AcDbLine
10
4.17
20
-4.7
30
0
11
4.17
21
-0.3
31
0
0
TEXT
5
178
100
AcDbEntity
8
CUT_SEQUENCE
100
AcDbText
10
4.17
20
-2.5
30
0
40
0.413401
1
53
0
LINE
5
179
100
AcDbEntity
8
CUT_SEQUENCE
100
AcDbLine
10
4.5
20
8.7
30
0
11
4.5
21
4.3
31
0
0
TEXT
5
17A
100
AcDbEntity
8
CUT_SEQUENCE
100
AcDbText
10
4.5
20
6.5
30
0
40
0.413401
1
54
0
LINE
5
17B
100
AcDbEntity
8
CUT_SEQUENCE
100
AcDbLine
10
4.65
20
8.7
30
0
11
4.65
21
4.3
31
0
0
TEXT
5
17C
100
AcDbEntity
8
CUT_SEQUENCE
100
AcDbText
10
4.65
20
6.5
30
0
40
0.413401
1
55
0
LINE
5
17D
100
AcDbEntity
8
CUT_SEQUENCE
100
AcDbLine
10
4.65
20
-4.7
30
0
11
4.65
21
-0.3
31
0
0
TEXT
5
17E
100
AcDbEntity
8
CUT_SEQUENCE
100
AcDbText
10
4.65
20
-2.5
30
0
40
0.413401
1
56
0
LINE
5
17F
100
AcDbEntity
8
CUT_SEQUENCE
100
AcDbLine
10
5.1
20
-4.7
30
0
11
5.1
21
-0.3
31
0
0
TEXT
5
180
100
AcDbEntity
8
CUT_SEQUENCE
100
AcDbText
10
5.1
20
-2.5
30
0
40
0.413401
1
57
0
LINE
5
181
100
AcDbEntity
8
CUT_SEQUENCE
100
AcDbLine
10
5.43
20
8.7
30
0
11
5.43
21
4.3
31
0
0
TEXT
5
182
100
AcDbEntity
8
CUT_SEQUENCE
100
AcDbText
10
5.43
20
6.5
30
0
40
0.413401
1
58
0
LINE
5
183
100
AcDbEntity
8
CUT_SEQUENCE
100
AcDbLine
10
5.58
20
8.7
30
0
11
5.58
21
4.3
31
0
0
TEXT
5
184
100
AcDbEntity
8
CUT_SEQUENCE
100
AcDbText
10
5.58
20
6.5
30
0
40
0.413401
1
59
0
LINE
5
185
100
AcDbEntity
8
CUT_SEQUENCE
100
AcDbLine
10
5.58
20
-4.7
30
0
11
5.58
21
-0.3
31
0
0
TEXT
5
186
100
AcDbEntity
8
CUT_SEQUENCE
100
AcDbText
10
5.58
20
-2.5
30
0
40
0.413401
1
60
0
LINE
5
187
100
AcDbEntity
8
CUT_SEQUENCE
100
AcDbLine
10
5.609
20
8.7
30
0
11
5.609
21
4.3
31
0
0
TEXT
5
188
100
AcDbEntity
8
CUT_SEQUENCE
100
AcDbText
10
5.609
20
6.5
30
0
40
0.413401
1
61
0
LINE
5
189
100
AcDbEntity
8
CUT_SEQUENCE
100
AcDbLine
10
6.03
20
-4.7
30
0
11
6.03
21
-0.3
31
0
0
TEXT
5
18A
100
AcDbEntity
8
CUT_SEQUENCE
100
AcDbText
10
6.03
20
-2.5
30
0
40
0.413401
1
62
0
LINE
5
18B
100
AcDbEntity
8
CUT_SEQUENCE
100
AcDbLine
10
6.36
20
8.7
30
0
11
6.36
21
4.3
31
0
0
TEXT
5
18C
100
AcDbEntity
8
CUT_SEQUENCE
100
AcDbText
10
6.36
20
6.5
30
0
40
0.413401
1
63
0
LINE
5
18D
100
AcDbEntity
8
CUT_SEQUENCE
100
AcDbLine
10
6.51
20
8.7
30
0
11
6.51
21
4.3
31
0
0
TEXT
5
18E
100
AcDbEntity
8
CUT_SEQUENCE
100
AcDbText
10
6.51
20
6.5
30
0
40
0.413401
1
64
0
LINE
5
18F
100
AcDbEntity
8
CUT_SEQUENCE
100
AcDbLine
10
6.51
20
-4.7
30
0
11
6.51
21
-0.3
31
0
0
TEXT
5
190
100
AcDbEntity
8
CUT_SEQUENCE
100
AcDbText
10
6.51
20
-2.5
30
0
40
0.413401
1
65
0
LINE
5
191
100
AcDbEntity
8
CUT_SEQUENCE
100
AcDbLine
10
6.539
20
8.7
30
0
11
6.539
21
4.3
31
0
0
TEXT
5
192
100
AcDbEntity
8
CUT_SEQUENCE
100
AcDbText
10
6.539
20
6.5
30
0
40
0.413401
1
66
0
LINE
5
193
100
AcDbEntity
8
CUT_SEQUENCE
100
AcDbLine
10
6.869
20
8.7
30
0
11
6.869
21
4.3
31
0
0
TEXT
5
194
100
AcDbEntity
8
CUT_SEQUENCE
100
AcDbText
10
6.869
20
6.5
30
0
40
0.413401
1
67
0
LINE
5
195
100
AcDbEntity
8
CUT_SEQUENCE
100
AcDbLine
10
6.96
20
-4.7
30
0
11
6.96
21
-0.3
31
0
0
TEXT
5
196
100
AcDbEntity
8
CUT_SEQUENCE
100
AcDbText
10
6.96
20
-2.5
30
0
40
0.413401
1
68
0
LINE
5
197
100
AcDbEntity
8
CUT_SEQUENCE
100
AcDbLine
10
6.99
20
8.7
30
0
11
6.99
21
4.3
31
0
0
TEXT
5
198
100
AcDbEntity
8
CUT_SEQUENCE
100
AcDbText
10
6.99
20
6.5
30
0
40
0.413401
1
69
0
LINE
5
199
100
AcDbEntity
8
CUT_SEQUENCE
100
AcDbLine
10
6.99
20
-4.7
30
0
11
6.99
21
-0.3
31
0
0
TEXT
5
19A
100
AcDbEntity
8
CUT_SEQUENCE
100
AcDbText
10
6.99
20
-2.5
30
0
40
0.413401
1
70
0
LINE
5
19B
100
AcDbEntity
8
CUT_SEQUENCE
100
AcDbLine
10
11.7
20
0
30
0
11
7.3
21
0
31
0
0
TEXT
5
19C
100
AcDbEntity
8
CUT_SEQUENCE
100
AcDbText
10
9.5
20
0
30
0
40
0.413401
1
71
0
LINE
5
19D
100
AcDbEntity
8
CUT_SEQUENCE
100
AcDbLine
10
-4.7
20
0
30
0
11
-0.3
21
0
31
0
0
TEXT
5
19E
100
AcDbEntity
8
CUT_SEQUENCE
100
AcDbText
10
-2.5
20
0
30
0
40
0.413401
1
72
0
LINE
5
19F
100
AcDbEntity
8
CUT_SEQUENCE
100
AcDbLine
10
11.7
20
0.73
30
0
11
7.3
21
0.73
31
0
0
TEXT
5
1A0
100
AcDbEntity
8
CUT_SEQUENCE
100
AcDbText
10
9.5
20
0.73
30
0
40
0.413401
1
73
0
LINE
5
1A1
100
AcDbEntity
8
CUT_SEQUENCE
100
AcDbLine
10
-4.7
20
0.73
30
0
11
-0.3
21
0.73
31
0
0
TEXT
5
1A2
100
AcDbEntity
8
CUT_SEQUENCE
100
AcDbText
10
-2.5
20
0.73
30
0
40
0.413401
1
74
0
LINE
5
1A3
100
AcDbEntity
8
CUT_SEQUENCE
100
AcDbLine
10
11.7
20
1.46
30
0
11
7.3
21
1.46
31
0
0
TEXT
5
1A4
100
AcDbEntity
8
CUT_SEQUENCE
100
AcDbText
10
9.5
20
1.46
30
0
40
0.413401
1
75
0
LINE
5
1A5
100
AcDbEntity
8
CUT_SEQUENCE
100
AcDbLine
10
-4.7
20
1.46
30
0
11
-0.3
21
1.46
31
0
0
TEXT
5
1A6
100
AcDbEntity
8
CUT_SEQUENCE
100
AcDbText
10
-2.5
20
1.46
30
0
40
0.413401
1
76
0
LINE
5
1A7
100
AcDbEntity
8
CUT_SEQUENCE
100
AcDbLine
10
11.7
20
2.19
30
0
11
7.3
21
2.19
31
0
0
TEXT
5
1A8
100
AcDbEntity
8
CUT_SEQUENCE
100
AcDbText
10
9.5
20
2.19
30
0
40
0.413401
1
77
0
LINE
5
1A9
100
AcDbEntity
8
CUT_SEQUENCE
100
AcDbLine
10
-4.7
20
2.19
30
0
11
-0.3
21
2.19
31
0
0
TEXT
5
1AA
100
AcDbEntity
8
CUT_SEQUENCE
100
AcDbText
10
-2.5
20
2.19
30
0
40
0.413401
1
78
0
LINE
5
1AB
100
AcDbEntity
8
CUT_SEQUENCE
100
AcDbLine
10
11.7
20
2.92
30
0
11
7.3
21
2.92
31
0
0
TEXT
5
1AC
100
AcDbEntity
8
CUT_SEQUENCE
100
AcDbText
10
9.5
20
2.92
30
0
40
0.413401
1
79
0
LINE
5
1AD
100
AcDbEntity
8
CUT_SEQUENCE
100
AcDbLine
10
-4.7
20
2.92
30
0
11
-0.3
21
2.92
31
0
0
TEXT
5
1AE
100
AcDbEntity
8
CUT_SEQUENCE
100
AcDbText
10
-2.5
20
2.92
30
0
40
0.413401
1
80
0
LINE
5
1AF
100
AcDbEntity
8
CUT_SEQUENCE
100
AcDbLine
10
11.7
20
3.65
30
0
11
7.3
21
3.65
31
0
0
TEXT
5
1B0
100
AcDbEntity
8
CUT_SEQUENCE
100
AcDbText
10
9.5
20
3.65
30
0
40
0.413401
1
81
0
LINE
5
1B1
100
AcDbEntity
8
CUT_SEQUENCE
100
AcDbLine
10
-4.7
20
3.65
30
0
11
-0.3
21
3.65
31
0
0
TEXT
5
1B2
100
AcDbEntity
8
CUT_SEQUENCE
100
AcDbText
10
-2.5
20
3.65
30
0
40
0.413401
1
82
0
LINE
5
1B3
100
AcDbEntity
8
CUT_SEQUENCE
100
AcDbLine
10
11.7
20
3.913
30
0
11
7.3
21
3.913
31
0
0
TEXT
5
1B4
100
AcDbEntity
8
CUT_SEQUENCE
100
AcDbText
10
9.5
20
3.913
30
0
40
0.413401
1
83
0
LINE
5
1B5
100
AcDbEntity
8
CUT_SEQUENCE
100
AcDbLine
10
-4.7
20
3.913
30
0
11
-0.3
21
3.913
31
0
0
TEXT
5
1B6
100
AcDbEntity
8
CUT_SEQUENCE
100
AcDbText
10
-2.5
20
3.913
30
0
40
0.413401
1
84
0
TEXT
5
1B7
100
AcDbEntity
8
TITLE
100
AcDbText
10
-4.7
20
-5.733501
30
0
40
0.661441
1
BOTTICINO G1 GPR BENCH - BLOCK CUT PLAN (BONDUA; TINTI ET AL. 2024)
0
TEXT
5
1B8
100
AcDbEntity
8
TITLE
100
AcDbText
10
-4.7
20
-6.924095
30
0
40
0.37206
1
units: m   (SCHEDULE = cut list, CUT_SEQUENCE = saw order, FRACTURES = bed/flaw traces)
0
LINE
5
1B9
100
AcDbEntity
8
SCHEDULE
100
AcDbLine
10
-4.7
20
-7.833576
30
0
11
11.836021
21
-7.833576
31
0
0
LINE
5
1BA
100
AcDbEntity
8
SCHEDULE
100
AcDbLine
10
-4.7
20
-8.619037
30
0
11
11.836021
21
-8.619037
31
0
0
LINE
5
1BB
100
AcDbEntity
8
SCHEDULE
100
AcDbLine
10
-4.7
20
-9.404498
30
0
11
11.836021
21
-9.404498
31
0
0
LINE
5
1BC
100
AcDbEntity
8
SCHEDULE
100
AcDbLine
10
-4.7
20
-7.833576
30
0
11
-4.7
21
-9.404498
31
0
0
LINE
5
1BD
100
AcDbEntity
8
SCHEDULE
100
AcDbLine
10
-3.459798
20
-7.833576
30
0
11
-3.459798
21
-9.404498
31
0
0
LINE
5
1BE
100
AcDbEntity
8
SCHEDULE
100
AcDbLine
10
0.674207
20
-7.833576
30
0
11
0.674207
21
-9.404498
31
0
0
LINE
5
1BF
100
AcDbEntity
8
SCHEDULE
100
AcDbLine
10
6.875215
20
-7.833576
30
0
11
6.875215
21
-9.404498
31
0
0
LINE
5
1C0
100
AcDbEntity
8
SCHEDULE
100
AcDbLine
10
8.942218
20
-7.833576
30
0
11
8.942218
21
-9.404498
31
0
0
LINE
5
1C1
100
AcDbEntity
8
SCHEDULE
100
AcDbLine
10
11.836021
20
-7.833576
30
0
11
11.836021
21
-9.404498
31
0
0
TEXT
5
1C2
100
AcDbEntity
8
SCHEDULE
100
AcDbText
10
-4.51397
20
-8.433007
30
0
40
0.35139
1
#
0
TEXT
5
1C3
100
AcDbEntity
8
SCHEDULE
100
AcDbText
10
-3.273768
20
-8.433007
30
0
40
0.35139
1
PIECE
0
TEXT
5
1C4
100
AcDbEntity
8
SCHEDULE
100
AcDbText
10
0.860237
20
-8.433007
30
0
40
0.35139
1
SIZE (m)
0
TEXT
5
1C5
100
AcDbEntity
8
SCHEDULE
100
AcDbText
10
7.061245
20
-8.433007
30
0
40
0.35139
1
QTY
0
TEXT
5
1C6
100
AcDbEntity
8
SCHEDULE
100
AcDbText
10
9.128248
20
-8.433007
30
0
40
0.35139
1
OP
0
TEXT
5
1C7
100
AcDbEntity
8
SCHEDULE
100
AcDbText
10
-4.51397
20
-9.218468
30
0
40
0.33072
1
1
0
TEXT
5
1C8
100
AcDbEntity
8
SCHEDULE
100
AcDbText
10
-3.273768
20
-9.218468
30
0
40
0.33072
1
PLAN
0
TEXT
5
1C9
100
AcDbEntity
8
SCHEDULE
100
AcDbText
10
0.860237
20
-9.218468
30
0
40
0.33072
1
0.9 x 0.7 x 0.4
0
TEXT
5
1CA
100
AcDbEntity
8
SCHEDULE
100
AcDbText
10
7.061245
20
-9.218468
30
0
40
0.33072
1
224
0
TEXT
5
1CB
100
AcDbEntity
8
SCHEDULE
100
AcDbText
10
9.128248
20
-9.218468
30
0
40
0.33072
1
saw
0
ENDSEC
0
EOF
