0
SECTION
2
HEADER
9
$ACADVER
1
AC1015
9
$INSUNITS
70
6
9
$HANDSEED
5
FFFF
0
ENDSEC
0
SECTION
2
TABLES
0
TABLE
2
LAYER
70
4
0
LAYER
2
0
70
0
62
7
6
CONTINUOUS
0
LAYER
2
bench
70
0
62
1
6
CONTINUOUS
0
LAYER
2
TITLE
70
0
62
5
6
CONTINUOUS
0
LAYER
2
SCHEDULE
70
0
62
7
6
CONTINUOUS
0
LAYER
2
CUT_SEQUENCE
70
0
62
1
6
CONTINUOUS
0
ENDTAB
0
ENDSEC
0
SECTION
2
ENTITIES
0
LWPOLYLINE
5
100
100
AcDbEntity
8
bench
100
AcDbPolyline
90
4
70
1
10
0
20
0
10
7
20
0
10
7
20
4
10
0
20
4
0
TEXT
5
101
100
AcDbEntity
8
bench
100
AcDbText
10
3.5
20
2
30
0
40
0.403113
1
bench
0
LINE
5
102
100
AcDbEntity
8
CUT_SEQUENCE
100
AcDbLine
10
0
20
0
30
0
11
0
21
3.91331
31
0
0
TEXT
5
103
100
AcDbEntity
8
CUT_SEQUENCE
100
AcDbText
10
0
20
1.956655
30
0
40
0.403113
1
1
0
LINE
5
104
100
AcDbEntity
8
CUT_SEQUENCE
100
AcDbLine
10
0.93
20
0
30
0
11
0.93
21
3.91331
31
0
0
TEXT
5
105
100
AcDbEntity
8
CUT_SEQUENCE
100
AcDbText
10
0.93
20
1.956655
30
0
40
0.403113
1
2
0
LINE
5
106
100
AcDbEntity
8
CUT_SEQUENCE
100
AcDbLine
10
1.86
20
0
30
0
11
1.86
21
3.91331
31
0
0
TEXT
5
107
100
AcDbEntity
8
CUT_SEQUENCE
100
AcDbText
10
1.86
20
1.956655
30
0
40
0.403113
1
3
0
LINE
5
108
100
AcDbEntity
8
CUT_SEQUENCE
100
AcDbLine
10
2.31
20
0
30
0
11
2.31
21
0.73
31
0
0
TEXT
5
109
100
AcDbEntity
8
CUT_SEQUENCE
100
AcDbText
10
2.31
20
0.365
30
0
40
0.403113
1
4
0
LINE
5
10A
100
AcDbEntity
8
CUT_SEQUENCE
100
AcDbLine
10
2.64
20
0.73
30
0
11
2.64
21
3.91331
31
0
0
TEXT
5
10B
100
AcDbEntity
8
CUT_SEQUENCE
100
AcDbText
10
2.64
20
2.321655
30
0
40
0.403113
1
5
0
LINE
5
10C
100
AcDbEntity
8
CUT_SEQUENCE
100
AcDbLine
10
2.79
20
0
30
0
11
2.79
21
3.91331
31
0
0
TEXT
5
10D
100
AcDbEntity
8
CUT_SEQUENCE
100
AcDbText
10
2.79
20
1.956655
30
0
40
0.403113
1
6
0
LINE
5
10E
100
AcDbEntity
8
CUT_SEQUENCE
100
AcDbLine
10
2.97
20
2.19
30
0
11
2.97
21
3.65
31
0
0
TEXT
5
10F
100
AcDbEntity
8
CUT_SEQUENCE
100
AcDbText
10
2.97
20
2.92
30
0
40
0.403113
1
7
0
LINE
5
110
100
AcDbEntity
8
CUT_SEQUENCE
100
AcDbLine
10
3.24
20
0
30
0
11
3.24
21
0.73
31
0
0
TEXT
5
111
100
AcDbEntity
8
CUT_SEQUENCE
100
AcDbText
10
3.24
20
0.365
30
0
40
0.403113
1
8
0
LINE
5
112
100
AcDbEntity
8
CUT_SEQUENCE
100
AcDbLine
10
3.57
20
0.73
30
0
11
3.57
21
3.91331
31
0
0
TEXT
5
113
100
AcDbEntity
8
CUT_SEQUENCE
100
AcDbText
10
3.57
20
2.321655
30
0
40
0.403113
1
9
0
LINE
5
114
100
AcDbEntity
8
CUT_SEQUENCE
100
AcDbLine
10
3.72
20
0
30
0
11
3.72
21
3.91331
31
0
0
TEXT
5
115
100
AcDbEntity
8
CUT_SEQUENCE
100
AcDbText
10
3.72
20
1.956655
30
0
40
0.403113
1
10
0
LINE
5
116
100
AcDbEntity
8
CUT_SEQUENCE
100
AcDbLine
10
3.9
20
2.19
30
0
11
3.9
21
3.65
31
0
0
TEXT
5
117
100
AcDbEntity
8
CUT_SEQUENCE
100
AcDbText
10
3.9
20
2.92
30
0
40
0.403113
1
11
0
LINE
5
118
100
AcDbEntity
8
CUT_SEQUENCE
100
AcDbLine
10
4.17
20
0
30
0
11
4.17
21
0.73
31
0
0
TEXT
5
119
100
AcDbEntity
8
CUT_SEQUENCE
100
AcDbText
10
4.17
20
0.365
30
0
40
0.403113
1
12
0
LINE
5
11A
100
AcDbEntity
8
CUT_SEQUENCE
100
AcDbLine
10
4.5
20
0.73
30
0
11
4.5
21
3.91331
31
0
0
TEXT
5
11B
100
AcDbEntity
8
CUT_SEQUENCE
100
AcDbText
10
4.5
20
2.321655
30
0
40
0.403113
1
13
0
LINE
5
11C
100
AcDbEntity
8
CUT_SEQUENCE
100
AcDbLine
10
4.65
20
0
30
0
11
4.65
21
3.91331
31
0
0
TEXT
5
11D
100
AcDbEntity
8
CUT_SEQUENCE
100
AcDbText
10
4.65
20
1.956655
30
0
40
0.403113
1
14
0
LINE
5
11E
100
AcDbEntity
8
CUT_SEQUENCE
100
AcDbLine
10
4.83
20
2.19
30
0
11
4.83
21
3.65
31
0
0
TEXT
5
11F
100
AcDbEntity
8
CUT_SEQUENCE
100
AcDbText
10
4.83
20
2.92
30
0
40
0.403113
1
15
0
LINE
5
120
100
AcDbEntity
8
CUT_SEQUENCE
100
AcDbLine
10
5.1
20
0
30
0
11
5.1
21
0.73
31
0
0
TEXT
5
121
100
AcDbEntity
8
CUT_SEQUENCE
100
AcDbText
10
5.1
20
0.365
30
0
40
0.403113
1
16
0
LINE
5
122
100
AcDbEntity
8
CUT_SEQUENCE
100
AcDbLine
10
5.43
20
0.73
30
0
11
5.43
21
3.91331
31
0
0
TEXT
5
123
100
AcDbEntity
8
CUT_SEQUENCE
100
AcDbText
10
5.43
20
2.321655
30
0
40
0.403113
1
17
0
LINE
5
124
100
AcDbEntity
8
CUT_SEQUENCE
100
AcDbLine
10
5.58
20
0
30
0
11
5.58
21
3.91331
31
0
0
TEXT
5
125
100
AcDbEntity
8
CUT_SEQUENCE
100
AcDbText
10
5.58
20
1.956655
30
0
40
0.403113
1
18
0
LINE
5
126
100
AcDbEntity
8
CUT_SEQUENCE
100
AcDbLine
10
5.609
20
3.65
30
0
11
5.609
21
3.91331
31
0
0
TEXT
5
127
100
AcDbEntity
8
CUT_SEQUENCE
100
AcDbText
10
5.609
20
3.781655
30
0
40
0.403113
1
19
0
LINE
5
128
100
AcDbEntity
8
CUT_SEQUENCE
100
AcDbLine
10
5.76
20
2.19
30
0
11
5.76
21
3.65
31
0
0
TEXT
5
129
100
AcDbEntity
8
CUT_SEQUENCE
100
AcDbText
10
5.76
20
2.92
30
0
40
0.403113
1
20
0
LINE
5
12A
100
AcDbEntity
8
CUT_SEQUENCE
100
AcDbLine
10
5.939
20
2.19
30
0
11
5.939
21
2.92
31
0
0
TEXT
5
12B
100
AcDbEntity
8
CUT_SEQUENCE
100
AcDbText
10
5.939
20
2.555
30
0
40
0.403113
1
21
0
LINE
5
12C
100
AcDbEntity
8
CUT_SEQUENCE
100
AcDbLine
10
6.03
20
0
30
0
11
6.03
21
0.73
31
0
0
TEXT
5
12D
100
AcDbEntity
8
CUT_SEQUENCE
100
AcDbText
10
6.03
20
0.365
30
0
40
0.403113
1
22
0
LINE
5
12E
100
AcDbEntity
8
CUT_SEQUENCE
100
AcDbLine
10
6.269
20
2.92
30
0
11
6.269
21
3.65
31
0
0
TEXT
5
12F
100
AcDbEntity
8
CUT_SEQUENCE
100
AcDbText
10
6.269
20
3.285
30
0
40
0.403113
1
23
0
LINE
5
130
100
AcDbEntity
8
CUT_SEQUENCE
100
AcDbLine
10
6.36
20
0.73
30
0
11
6.36
21
3.91331
31
0
0
TEXT
5
131
100
AcDbEntity
8
CUT_SEQUENCE
100
AcDbText
10
6.36
20
2.321655
30
0
40
0.403113
1
24
0
LINE
5
132
100
AcDbEntity
8
CUT_SEQUENCE
100
AcDbLine
10
6.51
20
0
30
0
11
6.51
21
3.91331
31
0
0
TEXT
5
133
100
AcDbEntity
8
CUT_SEQUENCE
100
AcDbText
10
6.51
20
1.956655
30
0
40
0.403113
1
25
0
LINE
5
134
100
AcDbEntity
8
CUT_SEQUENCE
100
AcDbLine
10
6.539
20
3.65
30
0
11
6.539
21
3.91331
31
0
0
TEXT
5
135
100
AcDbEntity
8
CUT_SEQUENCE
100
AcDbText
10
6.539
20
3.781655
30
0
40
0.403113
1
26
0
LINE
5
136
100
AcDbEntity
8
CUT_SEQUENCE
100
AcDbLine
10
6.69
20
2.19
30
0
11
6.69
21
3.65
31
0
0
TEXT
5
137
100
AcDbEntity
8
CUT_SEQUENCE
100
AcDbText
10
6.69
20
2.92
30
0
40
0.403113
1
27
0
LINE
5
138
100
AcDbEntity
8
CUT_SEQUENCE
100
AcDbLine
10
6.869
20
2.19
30
0
11
6.869
21
3.91331
31
0
0
TEXT
5
139
100
AcDbEntity
8
CUT_SEQUENCE
100
AcDbText
10
6.869
20
3.051655
30
0
40
0.403113
1
28
0
LINE
5
13A
100
AcDbEntity
8
CUT_SEQUENCE
100
AcDbLine
10
6.899
20
2.92
30
0
11
6.899
21
3.65
31
0
0
TEXT
5
13B
100
AcDbEntity
8
CUT_SEQUENCE
100
AcDbText
10
6.899
20
3.285
30
0
40
0.403113
1
29
0
LINE
5
13C
100
AcDbEntity
8
CUT_SEQUENCE
100
AcDbLine
10
6.96
20
0
30
0
11
6.96
21
0.73
31
0
0
TEXT
5
13D
100
AcDbEntity
8
CUT_SEQUENCE
100
AcDbText
10
6.96
20
0.365
30
0
40
0.403113
1
30
0
LINE
5
13E
100
AcDbEntity
8
CUT_SEQUENCE
100
AcDbLine
10
6.99
20
0
30
0
11
6.99
21
3.91331
31
0
0
TEXT
5
13F
100
AcDbEntity
8
CUT_SEQUENCE
100
AcDbText
10
6.99
20
1.956655
30
0
40
0.403113
1
31
0
LINE
5
140
100
AcDbEntity
8
CUT_SEQUENCE
100
AcDbLine
10
0
20
0
30
0
11
6.99
21
0
31
0
0
TEXT
5
141
100
AcDbEntity
8
CUT_SEQUENCE
100
AcDbText
10
3.495
20
0
30
0
40
0.403113
1
32
0
LINE
5
142
100
AcDbEntity
8
CUT_SEQUENCE
100
AcDbLine
10
0
20
0.73
30
0
11
6.99
21
0.73
31
0
0
TEXT
5
143
100
AcDbEntity
8
CUT_SEQUENCE
100
AcDbText
10
3.495
20
0.73
30
0
40
0.403113
1
33
0
LINE
5
144
100
AcDbEntity
8
CUT_SEQUENCE
100
AcDbLine
10
0
20
1.46
30
0
11
6.99
21
1.46
31
0
0
TEXT
5
145
100
AcDbEntity
8
CUT_SEQUENCE
100
AcDbText
10
3.495
20
1.46
30
0
40
0.403113
1
34
0
LINE
5
146
100
AcDbEntity
8
CUT_SEQUENCE
100
AcDbLine
10
0
20
2.19
30
0
11
6.99
21
2.19
31
0
0
TEXT
5
147
100
AcDbEntity
8
CUT_SEQUENCE
100
AcDbText
10
3.495
20
2.19
30
0
40
0.403113
1
35
0
LINE
5
148
100
AcDbEntity
8
CUT_SEQUENCE
100
AcDbLine
10
0
20
2.92
30
0
11
6.99
21
2.92
31
0
0
TEXT
5
149
100
AcDbEntity
8
CUT_SEQUENCE
100
AcDbText
10
3.495
20
2.92
30
0
40
0.403113
1
36
0
LINE
5
14A
100
AcDbEntity
8
CUT_SEQUENCE
100
AcDbLine
10
0
20
3.65
30
0
11
6.99
21
3.65
31
0
0
TEXT
5
14B
100
AcDbEntity
8
CUT_SEQUENCE
100
AcDbText
10
3.495
20
3.65
30
0
40
0.403113
1
37
0
LINE
5
14C
100
AcDbEntity
8
CUT_SEQUENCE
100
AcDbLine
10
0
20
3.913
30
0
11
6.99
21
3.913
31
0
0
TEXT
5
14D
100
AcDbEntity
8
CUT_SEQUENCE
100
AcDbText
10
3.495
20
3.913
30
0
40
0.403113
1
38
0
TEXT
5
14E
100
AcDbEntity
8
TITLE
100
AcDbText
10
0
20
-1.007782
30
0
40
0.644981
1
BOTTICINO G1 GPR BENCH - BLOCK CUT PLAN (BONDUA; TINTI ET AL. 2024)
0
TEXT
5
14F
100
AcDbEntity
8
TITLE
100
AcDbText
10
0
20
-2.168747
30
0
40
0.362802
1
units: m   (SCHEDULE = cut list, CUT_SEQUENCE = saw order)
0
LINE
5
150
100
AcDbEntity
8
SCHEDULE
100
AcDbLine
10
0
20
-3.055596
30
0
11
16.124515
21
-3.055596
31
0
0
LINE
5
151
100
AcDbEntity
8
SCHEDULE
100
AcDbLine
10
0
20
-3.82151
30
0
11
16.124515
21
-3.82151
31
0
0
LINE
5
152
100
AcDbEntity
8
SCHEDULE
100
AcDbLine
10
0
20
-4.587425
30
0
11
16.124515
21
-4.587425
31
0
0
LINE
5
153
100
AcDbEntity
8
SCHEDULE
100
AcDbLine
10
0
20
-3.055596
30
0
11
0
21
-4.587425
31
0
0
LINE
5
154
100
AcDbEntity
8
SCHEDULE
100
AcDbLine
10
1.209339
20
-3.055596
30
0
11
1.209339
21
-4.587425
31
0
0
LINE
5
155
100
AcDbEntity
8
SCHEDULE
100
AcDbLine
10
5.240468
20
-3.055596
30
0
11
5.240468
21
-4.587425
31
0
0
LINE
5
156
100
AcDbEntity
8
SCHEDULE
100
AcDbLine
10
11.287161
20
-3.055596
30
0
11
11.287161
21
-4.587425
31
0
0
LINE
5
157
100
AcDbEntity
8
SCHEDULE
100
AcDbLine
10
13.302725
20
-3.055596
30
0
11
13.302725
21
-4.587425
31
0
0
LINE
5
158
100
AcDbEntity
8
SCHEDULE
100
AcDbLine
10
16.124515
20
-3.055596
30
0
11
16.124515
21
-4.587425
31
0
0
TEXT
5
159
100
AcDbEntity
8
SCHEDULE
100
AcDbText
10
0.181401
20
-3.640109
30
0
40
0.342646
1
#
0
TEXT
5
15A
100
AcDbEntity
8
SCHEDULE
100
AcDbText
10
1.390739
20
-3.640109
30
0
40
0.342646
1
PIECE
0
TEXT
5
15B
100
AcDbEntity
8
SCHEDULE
100
AcDbText
10
5.421868
20
-3.640109
30
0
40
0.342646
1
SIZE (m)
0
TEXT
5
15C
100
AcDbEntity
8
SCHEDULE
100
AcDbText
10
11.468562
20
-3.640109
30
0
40
0.342646
1
QTY
0
TEXT
5
15D
100
AcDbEntity
8
SCHEDULE
100
AcDbText
10
13.484126
20
-3.640109
30
0
40
0.342646
1
OP
0
TEXT
5
15E
100
AcDbEntity
8
SCHEDULE
100
AcDbText
10
0.181401
20
-4.406024
30
0
40
0.32249
1
1
0
TEXT
5
15F
100
AcDbEntity
8
SCHEDULE
100
AcDbText
10
1.390739
20
-4.406024
30
0
40
0.32249
1
bench
0
TEXT
5
160
100
AcDbEntity
8
SCHEDULE
100
AcDbText
10
5.421868
20
-4.406024
30
0
40
0.32249
1
0.9 x 0.7 x 0.4
0
TEXT
5
161
100
AcDbEntity
8
SCHEDULE
100
AcDbText
10
11.468562
20
-4.406024
30
0
40
0.32249
1
224
0
TEXT
5
162
100
AcDbEntity
8
SCHEDULE
100
AcDbText
10
13.484126
20
-4.406024
30
0
40
0.32249
1
saw
0
ENDSEC
0
EOF
